<svg xmlns="http://www.w3.org/2000/svg" width="512px" height="512px" viewBox="0 0 41 41">
  <path
    d="M 16.707 2.384 C 18.162 -0.128 21.838 -0.128 23.293 2.384 C 24.263 4.056 26.364 4.729 28.146 3.937 C 30.823 2.747 33.797 4.876 33.475 7.75 C 33.261 9.665 34.56 11.426 36.475 11.817 C 39.349 12.404 40.486 15.847 38.51 17.987 A 3.693 3.693 0 0 0 38.51 23.013 C 40.486 25.153 39.349 28.596 36.475 29.183 C 34.56 29.574 33.261 31.335 33.475 33.25 C 33.797 36.124 30.823 38.253 28.146 37.063 C 26.364 36.271 24.263 36.943 23.293 38.616 C 21.838 41.128 18.162 41.128 16.707 38.616 C 15.737 36.944 13.636 36.271 11.854 37.063 C 9.177 38.253 6.203 36.124 6.525 33.25 C 6.739 31.335 5.44 29.574 3.525 29.183 C 0.651 28.596 -0.486 25.153 1.49 23.013 A 3.693 3.693 0 0 0 1.49 17.987 C -0.486 15.847 0.651 12.404 3.525 11.817 C 5.44 11.426 6.739 9.665 6.525 7.75 C 6.203 4.876 9.177 2.747 11.854 3.937 C 13.636 4.729 15.737 4.057 16.707 2.384 Z"
    fill="rgb(170 199 255)" />
</svg>